<svg width="349" height="43" viewBox="0 0 349 43" fill="none" xmlns="http://www.w3.org/2000/svg">
<g clip-path="url(#clip0_76_361)">
<path d="M4.27397 38.8891V13.7304H0V42.5067H15.8219V38.8891H4.27397Z" fill="white"/>
<path d="M31.2188 43C38.0819 43 42.7257 38.7658 42.7257 31.0373V13.7304H38.4517V31.4073C38.4517 36.2992 35.6983 39.3824 31.2188 39.3824C26.7394 39.3824 23.986 36.2992 23.986 31.4073V13.7304H19.6709V31.0373C19.6709 38.7658 24.3558 43 31.2188 43Z" fill="white"/>
<path d="M52.9859 38.8891V13.7304H48.7119V42.5067H64.5338V38.8891H52.9859Z" fill="white"/>
<path d="M88.7257 17.348V13.7304H69.1641V42.5067H88.7257V38.8891H73.438V28.9407H87.9038V25.3231H73.438V17.348H88.7257Z" fill="white"/>
<path d="M114.151 42.5067H118.548L107.082 13.7304H102.891L91.4248 42.5067H95.8221L104.986 18.869L114.151 42.5067ZM104.986 9.00287C103.178 9.00287 101.822 7.64627 101.822 5.83748C101.822 4.19312 103.178 2.7543 104.986 2.7543C106.795 2.7543 108.069 4.19312 108.069 5.83748C108.069 7.64627 106.754 9.04398 104.986 9.00287ZM104.986 11.7572C108.274 11.7572 110.822 9.1262 110.822 5.83748C110.822 2.54876 108.192 0 104.986 0C101.781 0 99.0686 2.63098 99.0686 5.83748C99.0686 9.04398 101.699 11.7572 104.986 11.7572ZM109.548 29.7218H100.425L99.0275 33.3394H110.945L109.548 29.7218Z" fill="white"/>
<path d="M134.192 38.108H127.452V29.5985H134.192C137.11 29.5985 139.123 31.0373 139.123 33.8738C139.123 36.7103 137.11 38.108 134.192 38.108ZM127.452 18.1291H134.356C136.37 18.1291 137.726 19.8145 137.726 21.7467C137.726 23.6788 136.37 25.3231 134.356 25.3231H127.452V18.1291ZM139.575 27.0908C141.877 25.8987 143.151 23.7199 143.151 21.1711C143.151 17.3891 140.192 13.7304 133.945 13.7304H121.986V42.5067H133.822C141.137 42.5067 144.63 38.9302 144.63 34.0382C144.63 30.6673 142.986 28.4885 139.575 27.0908Z" fill="white"/>
<path d="M154.329 13.7304H148.822V42.5067H154.329V13.7304Z" fill="white"/>
<path d="M180.918 18.1291V13.7304H160.411V42.5067H180.918V38.108H165.918V29.5985H180.096V25.1998H165.918V18.1291H180.918Z" fill="white"/>
<path d="M206.15 13.7304V34.2849L192.712 13.7304H185.685V42.5067H190.986V20.4312L205.411 42.5067H211.452V13.7304H206.15Z" fill="white"/>
<path d="M238 13.7304V34.2849L224.562 13.7304H217.534V42.5067H222.836V20.4312L237.26 42.5067H243.301V13.7304H238Z" fill="white"/>
<path d="M269.151 42.5067H274.863L263.233 13.7304H257.603L245.973 42.5067H251.644L260.356 19.6501L269.151 42.5067ZM264.589 29.7629H256.164L254.562 33.9971H266.233L264.589 29.7629Z" fill="white"/>
<path d="M283.041 38.108V13.7304H277.534V42.5067H294.63V38.108H283.041Z" fill="white"/>
<path d="M318.466 18.1291V13.7304H297.959V42.5067H318.466V38.108H303.466V29.5985H317.644V25.1998H303.466V18.1291H318.466Z" fill="white"/>
<path d="M343.698 13.7304V34.2849L330.26 13.7304H323.232V42.5067H328.534V20.4312L342.958 42.5067H349V13.7304H343.698Z" fill="white"/>
</g>
<defs>
<clipPath id="clip0_76_361">
<rect width="349" height="43" fill="white"/>
</clipPath>
</defs>
</svg>
