<svg width="61" height="41" viewBox="0 0 61 41" fill="none" xmlns="http://www.w3.org/2000/svg">
<g clip-path="url(#clip0_76_776)">
<path d="M4.9822 36.8481V7.97351H0V41H17.6453V36.8481H4.9822Z" fill="black"/>
<path d="M35.4667 35.9516H28.4086V26.1852H35.4667C38.868 26.1852 41.2154 27.8366 41.2154 31.092C41.2154 34.3475 38.868 35.9516 35.4667 35.9516ZM28.4086 13.0218H35.6583C38.0057 13.0218 39.5866 14.9562 39.5866 17.1737C39.5866 19.3912 38.0057 21.2785 35.6583 21.2785H28.4086V13.0218ZM41.7423 23.3072C44.4251 21.939 45.9101 19.4384 45.9101 16.5132C45.9101 12.1726 42.4609 7.97351 35.1793 7.97351H22.0371V41H35.0355C43.5628 41 47.6348 36.8953 47.6348 31.2808C47.6348 27.4119 45.7185 24.9114 41.7423 23.3072Z" fill="black"/>
<path d="M54.1973 10.3326C52.0894 10.3326 50.5085 8.7756 50.5085 6.69966C50.5085 4.81243 52.0894 3.1611 54.1973 3.1611C56.3051 3.1611 57.7902 4.81243 57.7902 6.69966C57.7902 8.7756 56.2572 10.3797 54.1973 10.3326ZM54.1973 13.4937C58.0297 13.4937 60.9999 10.4741 60.9999 6.69966C60.9999 2.9252 57.9339 0 54.1973 0C50.4606 0 47.2988 3.01956 47.2988 6.69966C47.2988 10.3797 50.3648 13.4937 54.1973 13.4937Z" fill="black"/>
</g>
<defs>
<clipPath id="clip0_76_776">
<rect width="61" height="41" fill="white"/>
</clipPath>
</defs>
</svg>
